<?xml version="1.0" encoding="utf-8"?>
<!-- Generator: Adobe Illustrator 19.0.0, SVG Export Plug-In . SVG Version: 6.00 Build 0)  -->
<svg version="1.1" id="レイヤー_1" xmlns="http://www.w3.org/2000/svg" xmlns:xlink="http://www.w3.org/1999/xlink" x="0px"
	 y="0px" viewBox="0 0 1024 18" style="enable-background:new 0 0 1024 18;" xml:space="preserve">
<g>
	<path id="XMLID_1_" d="M0,0v8.6c6.7,1,13.5,1.2,20,3.1c14.9,4.4,29.3,3.5,43.6-3.4C74.6,3,86,2.2,97.7,3.2
		c11.7,1.1,23.5,1.9,35.2,1.3c15.7-0.8,31,0.9,46.1,6.7c17.9,6.8,36,9.3,54.4,3.7c13.4-4.1,26.9-4.7,40.5-2.5
		c0.2,0.1,0.5,0.2,0.7,0.3c21,6.6,41.9,5.7,62.1-4.5c16.5-8.4,33-9.9,50.1-3.4c16.2,6.2,32.8,8,49.7,5.3c3.6-0.6,7.3-1.2,11-1.5
		c0-0.2,0.1,0.2,0.1,0c6.9,1.1,14,1.2,20.8,3.2c14.9,4.4,29.3,3.5,43.6-3.4c11-5.4,22.4-6.2,34.1-5.1c11.7,1.1,23.5,1.9,35.2,1.3
		c15.7-0.8,31,0.9,46.1,6.7c17.9,6.8,36,9.3,54.4,3.7c13.2-4.1,26.5-4.6,39.9-2.6c0.3,0.1,0.7,0.2,1,0.3c21,6.6,41.9,5.7,62.1-4.5
		c16.5-8.4,33-9.9,50.1-3.4c16.2,6.2,32.8,8,49.7,5.3c3.6-0.6,7.3-1.2,11-1.5c0-0.2,0.1,0.2,0.1,0c6.9,1.1,14,1.2,20.8,3.2
		c14.9,4.4,29.3,3.5,43.6-3.4c11-5.4,22.4-6.2,34.1-5.1c9.9,0.9,19.9,1.6,29.9,1.4V0H0z"/>
</g>
</svg>
