<?xml version="1.0" encoding="utf-8"?>
<!-- Generator: Adobe Illustrator 19.0.0, SVG Export Plug-In . SVG Version: 6.00 Build 0)  -->
<svg version="1.1" id="レイヤー_1" xmlns="http://www.w3.org/2000/svg" xmlns:xlink="http://www.w3.org/1999/xlink" x="0px"
	 y="0px" viewBox="0 0 74 60" style="enable-background:new 0 0 74 60;" xml:space="preserve">
<style type="text/css">
	.st0{fill:#FFFFFF;}
</style>
<g>
	<path id="XMLID_27_" class="st0" d="M64.4,29.4c-0.5,0-1.1,0.2-1.7,0.4c-0.2,0.1-0.4,0.1-0.6,0.2c-0.3,0.1-0.6,0.2-0.8,0.2
		c-0.5,0-0.8-0.2-1-0.4c-0.6-0.6-0.5-1.8-0.5-3c0-0.6,0.1-1.2,0-1.7c-0.3-1.8-0.8-2.5-1.3-3.2c-0.2-0.2-0.3-0.5-0.5-0.7
		c-0.3-0.5-0.3-0.9-0.2-1.3c0.2-0.7,0.8-1,1.4-1.3c0.8-0.4,0.9-0.6,0.8-0.8c-0.2-0.5-0.4-0.5-0.5-0.5c-0.3,0-0.7,0.1-1.1,0.3
		C58,17.8,57.4,18,56.9,18c-0.4,0-0.7-0.1-1-0.3c-1.6-1-2-1.9-2.3-2.7c-0.2-0.7-0.5-1.3-1.4-2c-1.1-0.9-2-1.1-2.6-1.2
		c-0.6-0.1-1.2-0.3-1.4-1c-0.3-1.2,0.6-1.9,1.3-2.4c0.5-0.3,0.9-0.7,1-1.1c0-0.5-0.1-0.9-0.3-1.1c-0.2-0.2-0.5-0.3-0.8-0.3
		c-0.6,0-1.4,0.4-1.5,1.2l0,0l0,0c-0.4,2-1.8,2.7-2.9,2.7c-0.6,0-1.1-0.2-1.6-0.5c-1.1-0.7-2.3-1.1-3.5-1.1c-0.6,0-1.1,0.1-1.6,0.3
		C37.4,8.8,36.6,9,36,9c-0.6,0-1-0.2-1.2-0.5c-0.2-0.2-0.3-0.5-0.2-1.1c0.2-0.6,0.1-1.1-0.1-1.5c-0.2-0.2-0.5-0.4-0.8-0.4
		c-0.2,0-0.4,0.1-0.5,0.2c-0.1,0.2-0.1,0.4,0,0.6c0.2,0.7,0.4,1.6,0,2.3c-0.4,0.7-1.4,1.2-3.1,1.5c-0.2,0-0.3,0-0.5,0
		c-1.3,0-1.7-1-2.1-2C27,7.2,26.5,6,24.6,5.8c-0.1,0-0.3,0-0.4,0c-1.3,0-2.6,0.7-3.1,1.7c-0.4,0.9-0.3,1.8,0.5,2.8
		c0.2,0.3,0.6,0.5,1,0.8c0.6,0.4,1.3,0.9,1.4,1.6c0.1,0.5-0.1,1.1-0.7,1.8c-0.7,0.9-1.5,1.3-2.2,1.3c-0.7,0-1.4-0.4-2.1-1.2
		c-0.3-0.3-0.6-0.4-0.8-0.4c-0.3,0-0.7,0.2-0.9,0.5c-0.2,0.2-0.4,0.6-0.2,1.2c0.1,0.5,0.6,0.8,1,1.2c0.5,0.4,1,0.7,1.1,1.4
		c0.1,0.5-0.1,1-0.6,1.6c-1,1.2-1.8,1.8-2.6,1.8c-0.8,0-1.5-0.6-2.1-1.1c-0.5-0.5-1-0.9-1.6-1c-0.1,0-0.2,0-0.3,0
		c-0.5,0-0.8,0.1-1,0.4c-0.3,0.3-0.3,0.8-0.2,1.5c0.2,1.4,1,2,2.7,2.1c1.2,0.1,1.8,0.3,2.1,0.8c0.4,0.6,0.2,1.3-0.1,2.3
		c-0.3,0.9-0.6,2.1-0.7,3.6c-0.1,2.1,0.4,3.5,0.8,4.5c0.4,1.1,0.8,2.1-0.3,3.3c-0.8,1-1.8,1.3-2.7,1.6c-0.9,0.2-1.7,0.4-2.3,1.3
		c-0.4,0.5-0.5,1.3-0.2,1.9c0.3,0.6,0.8,1,1.5,1.1c0.1,0,0.2,0,0.3,0c1,0,1.9-0.7,2.9-1.3c0.9-0.6,1.7-1.1,2.5-1.1c0,0,0.1,0,0.1,0
		c1.1,0.1,1.4,1.1,1.6,1.9c0.2,0.8,0.4,1.6,1.1,2.3c0.8,0.8,1.2,1.4,1.1,2c-0.1,0.7-0.6,1-1.2,1.4c-0.2,0.1-0.5,0.3-0.7,0.5
		c-0.6,0.4-0.7,1-0.6,1.2c0.1,0.3,0.3,0.4,0.6,0.4c0.3,0,1.2-0.2,2.3-1.6c0.4-0.6,0.8-0.9,1.3-0.9c0.4,0,0.8,0.3,1.1,0.7
		c0.6,0.6,1.7,1.7,4.3,2.6c1,0.4,0.8,1.5,0.5,2.4c-0.2,0.8-0.4,1.6,0,2.2c0.2,0.2,0.5,0.4,1,0.4c0.2,0,0.4,0,0.5-0.1
		c0.2-0.1,0.5-0.2,0.6-0.5c0.1-0.2,0-0.4,0-0.5l-0.1-0.1c-0.3-0.6-1-1.8,0.1-2.7c0.2-0.1,0.4-0.2,0.7-0.2c0.5,0,1.3,0.2,1.9,0.4
		c0.1,0,0.3,0.1,0.3,0.1c0.6,0.1,1.5,0.2,2.8,0.2c0.6,0,1.2,0,1.7,0c0.5,0,1,0,1.4,0c0.5,0,0.8,0.1,1,0.4c0.4,0.5,0.3,1.2,0.2,2
		c-0.1,0.6-0.2,1.3,0.1,1.6c0.2,0.2,0.7,0.3,1,0.3l0.1,0c0.2,0,0.4-0.1,0.5-0.2c0.2-0.3,0-1.2-0.1-1.9c-0.2-1.1-0.5-2.4,0.6-2.7
		c0.2,0,0.4-0.1,0.5-0.1c1,0,1.2,0.9,1.4,1.6c0,0.2,0.1,0.3,0.1,0.5c0.3,1.2,1.2,2.4,2.5,2.4c0.2,0,0.4,0,0.7-0.1
		c0.6-0.2,1.1-0.7,1.5-1.3c0.3-0.6,0.4-1.2,0.2-1.7c-0.1-0.3-0.4-0.6-0.7-0.8c-0.5-0.5-1.4-1.3-0.5-2.3c0.5-0.5,1.6-1.8,3-1.8
		c0.5,0,1.2,0.2,1.7,1.1c0.6,0.9,1.8,1.6,2.9,1.6c0.4,0,0.7-0.1,1-0.2c0.7-0.3,1.4-1,1.6-1.8c0.1-0.4,0-0.8-0.4-1.2
		c-0.3-0.3-0.9-0.3-1.5-0.4c-0.9,0-2.1-0.1-2.7-1.1c-0.6-1.1-0.4-1.5,0.2-2.1c0.4-0.5,1.2-1.2,1.9-3.4c0.5-1.6,2-1.7,3.1-1.7
		c1.3-0.1,2-0.2,2.3-1.1c0.5-1.4-0.4-2.2-1.3-3c-0.7-0.6-1.4-1.2-1.1-2.1c0.4-1.4,1.1-2,2.4-2c0.4,0,0.8,0,1.4,0.1
		c0.2,0,0.3,0,0.5,0c0.8,0,1.5-0.3,1.7-0.7c0.2-0.3,0.2-0.7,0-1.2C65.2,29.5,64.8,29.4,64.4,29.4z"/>
	<path id="XMLID_26_" class="st0" d="M8.3,19.1c0,1.2-1.7,1.8-2.6,1.8c-1.1,0-1.9-0.7-2.2-1.9c-0.3-1.3,1.3-2.5,2.6-2.3
		C8,17.1,8.3,18.2,8.3,19.1z"/>
	<path id="XMLID_25_" class="st0" d="M9.3,40.9c0.3,0.5-0.2,1.2-0.6,1.4c-0.4,0.3-1,0.2-1.4-0.2c-0.4-0.5-0.1-1.3,0.5-1.6
		C8.7,40.2,9.1,40.5,9.3,40.9z"/>
	<path id="XMLID_24_" class="st0" d="M62.3,42.9c0.3,0.5-0.2,1.2-0.6,1.4c-0.4,0.3-1,0.2-1.4-0.2c-0.4-0.5-0.1-1.3,0.5-1.6
		C61.6,42.2,62.1,42.5,62.3,42.9z"/>
	<path id="XMLID_23_" class="st0" d="M63.2,14.8c-0.7,0.5-1.7,0-2-0.4c-0.4-0.5-0.3-1.3,0.2-1.9c0.6-0.7,1.9-0.5,2.3,0.3
		C64.1,13.7,63.7,14.4,63.2,14.8z"/>
	<path id="XMLID_22_" class="st0" d="M65.8,17.9c0.3,0.5-0.2,1.2-0.6,1.4c-0.4,0.3-1,0.2-1.4-0.2c-0.4-0.5-0.1-1.3,0.5-1.6
		C65.1,17.2,65.5,17.5,65.8,17.9z"/>
	<path id="XMLID_21_" class="st0" d="M52.5,58.8c0.2,0.3-0.1,0.6-0.3,0.7c-0.2,0.1-0.5,0.1-0.7-0.1c-0.2-0.2,0-0.7,0.3-0.8
		C52.2,58.4,52.4,58.6,52.5,58.8z"/>
	<path id="XMLID_20_" class="st0" d="M59.5,54.4c0.3,0.6-0.1,1.2-0.5,1.4c-0.4,0.2-0.9,0.1-1.4-0.4c-0.5-0.5-0.2-1.5,0.4-1.6
		C58.8,53.5,59.2,53.9,59.5,54.4z"/>
	<path id="XMLID_19_" class="st0" d="M63.6,54.3c0.2,0.4-0.1,0.9-0.4,1.1c-0.3,0.2-0.7,0.1-1-0.3c-0.3-0.4-0.1-1.1,0.3-1.2
		C63.1,53.6,63.4,54,63.6,54.3z"/>
	<path id="XMLID_18_" class="st0" d="M9.7,47.2c0.5,0.8-0.2,1.9-0.7,2.1c-0.6,0.4-1.4,0.2-2-0.6c-0.7-0.8-0.3-2.2,0.5-2.4
		C8.7,46,9.3,46.6,9.7,47.2z"/>
	<path id="XMLID_17_" class="st0" d="M12.7,16.4c0.3,0.4-0.1,0.9-0.4,1.1c-0.3,0.2-0.7,0.1-1-0.3c-0.4-0.4-0.2-1.1,0.3-1.2
		C12.2,15.8,12.5,16.1,12.7,16.4z"/>
	<path id="XMLID_16_" class="st0" d="M23.9,2c0.2,0.8-0.5,1.4-1,1.6c-0.6,0.2-1.2-0.1-1.5-0.8C21,2,21.6,1,22.3,0.9
		C23.3,0.8,23.7,1.4,23.9,2z"/>
	<path id="XMLID_15_" class="st0" d="M4.8,35.9c0.5,0.1,0.7,0.7,0.7,1c0,0.4-0.4,0.6-0.9,0.7c-0.6,0-1-0.6-0.9-1
		C3.9,35.9,4.4,35.8,4.8,35.9z"/>
	<path id="XMLID_14_" class="st0" d="M1.6,36.1c0.4,0,0.5,0.5,0.5,0.7c0,0.3-0.3,0.5-0.6,0.5c-0.4,0-0.7-0.4-0.6-0.7
		C1,36.1,1.3,36.1,1.6,36.1z"/>
	<path id="XMLID_13_" class="st0" d="M45.6,4.8c-1.2,0-1.8-1.7-1.8-2.6c0-1.1,0.7-1.9,1.9-2.2C47-0.2,48.2,1.3,48,2.6
		C47.6,4.4,46.6,4.8,45.6,4.8z"/>
	<path id="XMLID_12_" class="st0" d="M53,3.4c-0.5,0.3-1.2-0.2-1.4-0.6c-0.3-0.4-0.2-1,0.2-1.4C52.4,1,53.2,1.4,53.5,2
		C53.8,2.8,53.4,3.2,53,3.4z"/>
	<path id="XMLID_11_" class="st0" d="M21.5,55.6c-0.5,0.3-1.2-0.2-1.4-0.6c-0.3-0.4-0.2-1,0.2-1.4c0.5-0.4,1.3-0.1,1.6,0.5
		C22.2,55,21.9,55.4,21.5,55.6z"/>
	<path id="XMLID_10_" class="st0" d="M44.8,59.9c-0.3,0.2-0.8-0.2-0.9-0.4c-0.2-0.3-0.1-0.6,0.2-0.9c0.3-0.3,0.9-0.1,1,0.3
		C45.3,59.5,45.1,59.8,44.8,59.9z"/>
	<path id="XMLID_9_" class="st0" d="M4.7,45.8c-0.5,0.3-1.2-0.2-1.4-0.6c-0.3-0.4-0.2-1,0.2-1.4c0.5-0.4,1.3-0.1,1.6,0.5
		C5.4,45.1,5.1,45.5,4.7,45.8z"/>
	<path id="XMLID_8_" class="st0" d="M16.9,50.6c-0.6,0.3-1.2-0.1-1.4-0.5c-0.2-0.4-0.1-0.9,0.4-1.4c0.5-0.5,1.4-0.2,1.6,0.4
		C17.7,49.9,17.3,50.4,16.9,50.6z"/>
	<path id="XMLID_7_" class="st0" d="M72.7,34.7c-0.4,0.2-0.9-0.1-1.1-0.4c-0.2-0.3-0.1-0.7,0.3-1c0.4-0.3,1.1-0.2,1.2,0.3
		C73.3,34.2,73,34.5,72.7,34.7z"/>
	<path id="XMLID_6_" class="st0" d="M17.6,10c-0.4,0.3-0.9-0.1-1.1-0.4c-0.2-0.3-0.1-0.7,0.3-1c0.4-0.4,1.1-0.2,1.2,0.3
		C18.2,9.4,17.9,9.8,17.6,10z"/>
	<path id="XMLID_5_" class="st0" d="M68.7,16.2c-0.7,0.4-1.5-0.2-1.8-0.6c-0.3-0.5-0.1-1.2,0.5-1.7c0.6-0.6,1.8-0.2,2,0.5
		C69.7,15.4,69.2,15.9,68.7,16.2z"/>
	<path id="XMLID_4_" class="st0" d="M30.1,2.5c-0.1,0.5-0.7,0.7-1,0.7c-0.4,0-0.6-0.4-0.7-0.9c0-0.6,0.6-1,1-0.9
		C30,1.6,30.1,2.1,30.1,2.5z"/>
	<path id="XMLID_3_" class="st0" d="M27.6,0.8c0,0.4-0.5,0.5-0.7,0.5c-0.3,0-0.5-0.3-0.5-0.6c0-0.4,0.4-0.7,0.7-0.6
		C27.6,0.2,27.7,0.5,27.6,0.8z"/>
	<path id="XMLID_2_" class="st0" d="M66.6,23.4c-0.1,0.5-0.7,0.7-1,0.7c-0.4,0-0.6-0.4-0.7-0.9c0-0.6,0.6-1,1-0.9
		C66.5,22.5,66.6,23,66.6,23.4z"/>
	<path id="XMLID_1_" class="st0" d="M64.1,21.6c0,0.4-0.5,0.5-0.7,0.5c-0.3,0-0.5-0.3-0.5-0.6c0-0.4,0.4-0.7,0.7-0.6
		C64.1,21,64.1,21.4,64.1,21.6z"/>
</g>
</svg>
